<?xml version="1.0" standalone="no"?>
<!DOCTYPE svg PUBLIC "-//W3C//DTD SVG 20010904//EN"
 "http://www.w3.org/TR/2001/REC-SVG-20010904/DTD/svg10.dtd">
<svg version="1.0" xmlns="http://www.w3.org/2000/svg"
 width="640.000000pt" height="640.000000pt" viewBox="0 0 640.000000 640.000000"
 preserveAspectRatio="xMidYMid meet">
<metadata>
Created by potrace 1.16, written by Peter Selinger 2001-2019
</metadata>
<g transform="translate(0.000000,640.000000) scale(0.100000,-0.100000)"
fill="#000000" stroke="none">
<path d="M0 3200 l0 -3200 3200 0 3200 0 0 3200 0 3200 -3200 0 -3200 0 0
-3200z m3368 2865 c186 -22 473 -88 570 -131 18 -7 37 -14 43 -14 18 0 281
-116 359 -159 41 -22 86 -46 100 -53 14 -7 63 -37 110 -68 344 -222 620 -497
845 -840 74 -113 198 -347 235 -445 13 -33 29 -73 35 -90 67 -162 139 -451
165 -660 23 -185 24 -436 1 -640 -19 -177 -28 -231 -68 -390 -20 -79 -83 -286
-93 -306 -4 -8 -20 -47 -35 -85 -149 -375 -424 -758 -740 -1033 -128 -111
-180 -151 -196 -151 -17 0 -151 74 -211 117 -52 37 -103 103 -113 146 -15 60
33 128 125 177 188 99 388 248 545 405 158 158 246 292 295 446 28 90 28 275
1 357 -45 132 -103 222 -221 346 -50 51 -90 98 -90 103 0 6 20 41 45 79 99
150 191 371 232 559 22 101 25 408 5 500 -18 79 -51 192 -67 230 -104 245
-249 444 -465 641 -77 70 -322 254 -338 254 -5 0 -17 9 -27 20 -10 11 -22 20
-26 20 -5 0 -39 19 -76 42 -38 22 -91 54 -120 70 -120 66 -207 10 -154 -100
12 -25 42 -70 65 -101 96 -125 142 -202 237 -393 36 -73 53 -148 54 -239 0
-87 -2 -99 -27 -136 -15 -23 -37 -44 -48 -48 -15 -5 -62 13 -163 63 -78 38
-153 73 -167 77 -14 4 -61 19 -105 34 -338 117 -670 155 -975 112 -352 -51
-662 -198 -982 -466 -27 -23 -90 -52 -127 -59 -88 -16 -159 32 -214 146 -56
116 -67 162 -67 276 0 133 25 248 95 440 23 65 128 266 168 322 22 31 22 78 0
102 -22 25 -83 23 -136 -3 -180 -92 -503 -424 -720 -741 -37 -53 -67 -99 -67
-102 0 -3 -13 -24 -29 -48 -23 -34 -100 -182 -151 -289 -25 -52 -82 -210 -104
-289 -23 -86 -56 -299 -56 -369 0 -74 24 -242 46 -321 27 -93 95 -238 158
-334 134 -203 408 -435 673 -569 l50 -26 6 -158 c11 -309 66 -462 227 -624
131 -134 336 -256 590 -354 52 -20 113 -43 135 -52 22 -8 74 -26 115 -39 41
-14 84 -28 95 -33 133 -57 249 -131 308 -197 48 -54 87 -143 87 -198 0 -115
-149 -346 -223 -346 -12 0 -49 5 -82 11 -33 5 -91 14 -130 18 -38 5 -101 16
-140 25 -164 40 -231 58 -247 67 -10 5 -25 9 -34 9 -8 0 -36 9 -62 19 -26 11
-78 32 -117 46 -117 46 -375 179 -475 246 -536 358 -884 791 -1120 1394 -17
44 -35 96 -40 115 -92 355 -96 375 -116 555 -47 409 6 864 144 1250 13 39 31
88 39 110 8 22 50 112 93 200 140 285 307 515 544 750 140 140 351 311 468
380 377 222 572 300 973 388 59 13 223 35 380 51 79 8 373 -3 503 -19z"/>
</g>
</svg>
